<?xml version="1.0" encoding="UTF-8"?>
<svg id="Layer_1" xmlns="http://www.w3.org/2000/svg" version="1.1" viewBox="0 0 52 62">
  <!-- Generator: Adobe Illustrator 29.4.0, SVG Export Plug-In . SVG Version: 2.1.0 Build 152)  -->
  <defs>
    <style>
      .st0 {
        fill: #fff;
      }

      .st1 {
        fill: #f28a44;
      }
    </style>
  </defs>
  <rect class="st1" width="52" height="51.86" rx="6" ry="6"/>
  <path class="st1" d="M14.3,47.97c3.9,10.59,14.04,25.41,23.4,0H14.3Z"/>
  <ellipse class="st0" cx="25.35" cy="25.28" rx="18.85" ry="18.8"/>
  <path class="st1" d="M19.5,38.89v-11.86c-1.1-.3-2.03-.91-2.78-1.82-.75-.91-1.12-1.97-1.12-3.18v-9.08h2.6v9.08h1.3v-9.08h2.6v9.08h1.3v-9.08h2.6v9.08c0,1.21-.37,2.27-1.12,3.18-.75.91-1.67,1.51-2.78,1.82v11.86h-2.6ZM32.5,38.89v-10.37h-3.9v-9.08c0-1.79.63-3.32,1.9-4.59,1.27-1.26,2.8-1.9,4.6-1.9v25.93h-2.6Z"/>
</svg>